<?xml version="1.0" encoding="UTF-8" standalone="no"?>
<svg
   viewBox="0 0 48 48"
   width="240px"
   height="240px"
   version="1.1"
   id="svg27"
   sodipodi:docname="placebook c1.svg"
   inkscape:version="1.2.1 (9c6d41e410, 2022-07-14)"
   xmlns:inkscape="http://www.inkscape.org/namespaces/inkscape"
   xmlns:sodipodi="http://sodipodi.sourceforge.net/DTD/sodipodi-0.dtd"
   xmlns:xlink="http://www.w3.org/1999/xlink"
   xmlns="http://www.w3.org/2000/svg"
   xmlns:svg="http://www.w3.org/2000/svg">
  <defs
     id="defs31">
    <linearGradient
       inkscape:collect="always"
       xlink:href="#iu22Zjf0u3e5Ts0QLZZhJa"
       id="linearGradient2046"
       gradientUnits="userSpaceOnUse"
       x1="11.274"
       y1="9.271"
       x2="36.726"
       y2="34.723"
       gradientTransform="translate(0,-1.310375)" />
    <radialGradient
       inkscape:collect="always"
       xlink:href="#iu22Zjf0u3e5Ts0QLZZhJb"
       id="radialGradient2048"
       gradientUnits="userSpaceOnUse"
       cx="24"
       cy="22.5"
       r="9.5"
       gradientTransform="translate(-1.5,-2.510375)" />
  </defs>
  <sodipodi:namedview
     id="namedview29"
     pagecolor="#ffffff"
     bordercolor="#000000"
     borderopacity="0.25"
     inkscape:showpageshadow="2"
     inkscape:pageopacity="0.0"
     inkscape:pagecheckerboard="0"
     inkscape:deskcolor="#d1d1d1"
     showgrid="false"
     inkscape:zoom="1.3906433"
     inkscape:cx="155.32379"
     inkscape:cy="109.66148"
     inkscape:window-width="1368"
     inkscape:window-height="834"
     inkscape:window-x="-8"
     inkscape:window-y="-8"
     inkscape:window-maximized="1"
     inkscape:current-layer="svg27" />
  <linearGradient
     id="iu22Zjf0u3e5Ts0QLZZhJa"
     x1="11.274"
     x2="36.726"
     y1="9.271"
     y2="34.723"
     gradientUnits="userSpaceOnUse">
    <stop
       offset="0"
       stop-color="#d43a02"
       id="stop2" />
    <stop
       offset="1"
       stop-color="#b9360c"
       id="stop4" />
  </linearGradient>
  <radialGradient
     id="iu22Zjf0u3e5Ts0QLZZhJb"
     cx="24"
     cy="22.5"
     r="9.5"
     gradientUnits="userSpaceOnUse">
    <stop
       offset=".177"
       id="stop9" />
    <stop
       offset="1"
       stop-opacity="0"
       id="stop11" />
  </radialGradient>
  <radialGradient
     id="iu22Zjf0u3e5Ts0QLZZhJc"
     cx="23.842"
     cy="43.905"
     r="13.637"
     gradientUnits="userSpaceOnUse"
     gradientTransform="matrix(0.92045883,0,0,0.92045883,1.9099085,2.7862351)">
    <stop
       offset=".177"
       id="stop18" />
    <stop
       offset="1"
       stop-opacity="0"
       id="stop20" />
  </radialGradient>
  <g
     id="g2028"
     transform="translate(-110.45248,16.107653)">
    <path
       fill="url(#iu22Zjf0u3e5Ts0QLZZhJa)"
       d="M 36.902,34.536 C 40.052,31.294 42,26.877 42,22 42,12.06 33.94,4 24,4 14.06,4 6,12.06 6,22 c 0,4.877 1.948,9.294 5.098,12.536 0.018,0.019 0.03,0.04 0.048,0.059 l 0.059,0.059 c 0.047,0.048 0.094,0.095 0.142,0.142 l 11.239,11.239 c 0.781,0.781 2.047,0.781 2.828,0 L 36.653,34.796 c 0.048,-0.047 0.095,-0.094 0.142,-0.142 l 0.059,-0.059 c 0.019,-0.019 0.031,-0.041 0.048,-0.059 z"
       id="path7"
       style="fill:url(#iu22Zjf0u3e5Ts0QLZZhJa)" />
    <g
       id="g2019">
      <circle
         cx="24"
         cy="22.5"
         r="9.5"
         fill="url(#iu22Zjf0u3e5Ts0QLZZhJb)"
         id="circle14"
         style="fill:url(#iu22Zjf0u3e5Ts0QLZZhJb)" />
      <circle
         cx="24"
         cy="22"
         r="8"
         fill="#f9f9f9"
         id="circle16" />
    </g>
    <g
       id="g2015"
       transform="translate(0,-0.4)">
      <path
         fill="url(#iu22Zjf0u3e5Ts0QLZZhJc)"
         d="m 24.00092,30.4 c -4.369418,0 -8.224299,2.179647 -10.554901,5.506185 l 9.252452,9.252452 c 0.718879,0.718878 1.884179,0.718878 2.603058,0 l 9.252452,-9.252452 C 32.22522,32.579647 28.370338,30.4 24.00092,30.4 Z"
         id="path23"
         style="fill:url(#iu22Zjf0u3e5Ts0QLZZhJc);stroke-width:0.920459" />
      <path
         fill="#de490d"
         d="m 24,32.240918 c -3.862246,0 -7.256898,1.985429 -9.231281,4.988887 l 7.929752,7.929752 c 0.718878,0.718879 1.884179,0.718879 2.603057,0 l 7.929753,-7.929752 C 31.256897,34.226347 27.862245,32.240918 24,32.240918 Z"
         id="path25"
         style="fill:#ffffff;stroke-width:0.920459" />
    </g>
  </g>
  <path
     id="path2030"
     style="fill:url(#linearGradient2046)"
     d="M 24 2.6894531 C 14.06001 2.6894531 6 10.749463 6 20.689453 C 6 25.566448 7.94805 29.983784 11.098047 33.225781 C 11.116047 33.244781 11.128094 33.265766 11.146094 33.284766 L 11.205078 33.34375 C 11.252078 33.39175 11.298875 33.438547 11.346875 33.485547 L 22.585938 44.724609 C 23.366937 45.505609 24.633063 45.505609 25.414062 44.724609 L 27.892578 42.246094 L 16.682422 27.715234 C 15.655621 26.366597 14.948323 25.162033 14.560547 24.101562 C 14.175208 23.023093 14.025685 21.862039 14.111719 20.618359 C 14.21726 19.230714 14.639124 17.876946 15.376953 16.556641 C 16.114782 15.236335 17.071143 14.128936 18.246094 13.234375 C 20.371225 11.616394 22.698507 10.974248 25.228125 11.307813 C 27.767962 11.633602 29.842917 12.85384 31.453125 14.96875 C 33.016661 17.022359 33.635758 19.181458 33.310547 21.446484 C 33.019939 23.523774 31.679439 25.472735 29.288672 27.292969 L 28.326563 28.001172 L 24.149609 22.514453 C 25.406295 21.557663 25.669093 20.599064 24.937891 19.638672 C 24.268916 18.760013 23.454145 18.686372 22.49375 19.417578 C 21.523139 20.156562 21.489152 21.134447 22.414453 22.334375 L 33.46875 36.669922 L 36.653125 33.485547 C 36.701125 33.438547 36.747922 33.39175 36.794922 33.34375 L 36.853906 33.284766 C 36.872906 33.265766 36.884953 33.243781 36.901953 33.225781 C 40.05195 29.983784 42 25.566448 42 20.689453 C 42 10.749463 33.93999 2.6894531 24 2.6894531 z " />
  <circle
     cx="22.5"
     cy="19.989624"
     r="9.5"
     fill="url(#iu22Zjf0u3e5Ts0QLZZhJb)"
     id="circle2032"
     style="display:none;fill:url(#radialGradient2048)" />
  <circle
     cx="24"
     cy="20.689625"
     r="8"
     fill="#f9f9f9"
     id="circle2034"
     style="display:none" />
</svg>
