<?xml version="1.0" encoding="UTF-8" standalone="no"?>
<svg
   viewBox="0 0 48 48"
   width="240px"
   height="240px"
   version="1.1"
   id="svg27"
   sodipodi:docname="logo placebook.svg"
   inkscape:version="1.2.1 (9c6d41e410, 2022-07-14)"
   xmlns:inkscape="http://www.inkscape.org/namespaces/inkscape"
   xmlns:sodipodi="http://sodipodi.sourceforge.net/DTD/sodipodi-0.dtd"
   xmlns="http://www.w3.org/2000/svg"
   xmlns:svg="http://www.w3.org/2000/svg">
  <defs
     id="defs31" />
  <sodipodi:namedview
     id="namedview29"
     pagecolor="#ffffff"
     bordercolor="#000000"
     borderopacity="0.25"
     inkscape:showpageshadow="2"
     inkscape:pageopacity="0.0"
     inkscape:pagecheckerboard="0"
     inkscape:deskcolor="#d1d1d1"
     showgrid="false"
     inkscape:zoom="0.98333335"
     inkscape:cx="109.83051"
     inkscape:cy="144.91525"
     inkscape:window-width="1368"
     inkscape:window-height="834"
     inkscape:window-x="-8"
     inkscape:window-y="-8"
     inkscape:window-maximized="1"
     inkscape:current-layer="svg27" />
  <linearGradient
     id="iu22Zjf0u3e5Ts0QLZZhJa"
     x1="11.274"
     x2="36.726"
     y1="9.271"
     y2="34.723"
     gradientUnits="userSpaceOnUse"
     gradientTransform="translate(0,-1.3103749)">
    <stop
       offset="0"
       stop-color="#d43a02"
       id="stop2" />
    <stop
       offset="1"
       stop-color="#b9360c"
       id="stop4" />
  </linearGradient>
  <radialGradient
     id="iu22Zjf0u3e5Ts0QLZZhJb"
     cx="24"
     cy="22.5"
     r="9.5"
     gradientUnits="userSpaceOnUse">
    <stop
       offset=".177"
       id="stop9" />
    <stop
       offset="1"
       stop-opacity="0"
       id="stop11" />
  </radialGradient>
  <radialGradient
     id="iu22Zjf0u3e5Ts0QLZZhJc"
     cx="24.850014"
     cy="44.060741"
     r="13.637"
     gradientUnits="userSpaceOnUse"
     fx="24.850014"
     fy="44.060741"
     gradientTransform="matrix(0.99971708,-0.01102501,0.04927845,0.96002789,-2.1642145,2.0351728)">
    <stop
       offset=".177"
       id="stop18" />
    <stop
       offset="1"
       stop-opacity="0"
       id="stop20" />
  </radialGradient>
  <path
     fill="url(#iu22Zjf0u3e5Ts0QLZZhJa)"
     d="m 36.902,33.225625 c 3.15,-3.242 5.098,-7.659 5.098,-12.536 0,-9.94 -8.06,-17.9999998 -18,-17.9999998 -9.94,0 -18,8.0599998 -18,17.9999998 0,4.877 1.948,9.294 5.098,12.536 0.018,0.019 0.03,0.04 0.048,0.059 l 0.059,0.059 c 0.047,0.048 0.094,0.095 0.142,0.142 l 11.239,11.239 c 0.781,0.781 2.047,0.781 2.828,0 l 11.239,-11.239 c 0.048,-0.047 0.095,-0.094 0.142,-0.142 l 0.059,-0.059 c 0.019,-0.019 0.031,-0.041 0.048,-0.059 z"
     id="path7"
     style="fill:url(#iu22Zjf0u3e5Ts0QLZZhJa)" />
  <g
     id="g467"
     transform="translate(-0.40677967,-3.5964385)">
    <circle
       cx="24"
       cy="22.5"
       r="9.5"
       fill="url(#iu22Zjf0u3e5Ts0QLZZhJb)"
       id="circle14"
       style="fill:url(#iu22Zjf0u3e5Ts0QLZZhJb)" />
    <circle
       cx="24"
       cy="22"
       r="8"
       fill="#f9f9f9"
       id="circle16" />
  </g>
  <g
     id="g463"
     transform="matrix(0.60531801,0,0,1.3059276,14.505871,-13.632394)">
    <path
       id="path23"
       style="display:inline;fill:url(#iu22Zjf0u3e5Ts0QLZZhJc)"
       d="m 24.00015,29.999974 c -4.746996,0 -8.935374,2.368043 -11.467372,5.982039 0,0 8.920175,-0.484092 11.91458,1.366067 1.136388,0.702142 1.552038,2.122418 1.632019,3.614528 l 8.21753,-3.812543 1.168032,-1.168052 C 32.934942,32.368017 28.747145,29.999974 24.00015,29.999974 Z" />
    <path
       id="path571"
       style="display:inline;fill:#ffffff"
       d="m 20.376021,32.281937 c -5.845879,-0.02357 -11.3563874,2.360516 -9.932795,5.449611 0,0 11.997754,-4.043561 14.219669,1.815639 0.253677,0.668948 0.421629,1.27707 0.52142,1.830895 l 8.431777,-3.91215 C 31.395415,34.610206 27.639241,33.322739 24.00015,32.62293 22.816957,32.395399 21.589317,32.28683 20.376021,32.281937 Z" />
  </g>
</svg>
